{
	"asset":{
		"version":"2.0",
		"generator":"Created using the official Cinema 4D glTF Exporter 1.000x290161"
	},
	"scenes":[{
		"nodes":[0]
	}],
	"nodes":[{
		"name":"Halloween Pumpkin",
		"children":[1,
		2]
	},
	{
		"name":"Carved-Pumpkin",
		"translation":[-0.07253265380859375,
		11.402853965759278,
		-0.9534378051757813],
		"rotation":[0.0,
		0.0,
		0.0,
		-1.0],
		"scale":[1.0,
		1.0,
		1.0],
		"mesh":0
	},
	{
		"name":"Pumpkin-Stem",
		"translation":[-0.12386274337768555,
		26.55607795715332,
		-0.44319891929626467],
		"rotation":[1.0829192120809239e-7,
		-0.2777339518070221,
		-5.980084694101606e-8,
		0.9606580138206482],
		"scale":[0.9999999403953552,
		1.0,
		0.9999999403953552],
		"mesh":1
	}],
	"meshes":[{
		"primitives":[{
			"attributes":{
				"POSITION":1,
				"NORMAL":2,
				"TEXCOORD_0":3
			},
			"indices":0,
			"material":0
		}]
	},
	{
		"primitives":[{
			"attributes":{
				"POSITION":5,
				"NORMAL":6,
				"TEXCOORD_0":7
			},
			"indices":4,
			"material":1
		}]
	}],
	"accessors":[{
		"bufferView":0,
		"type":"SCALAR",
		"componentType":5123,
		"count":56496,
		"byteOffset":0,
		"min":[0],
		"max":[19109]
	},
	{
		"bufferView":1,
		"type":"VEC3",
		"componentType":5126,
		"count":19110,
		"byteOffset":0,
		"min":[-15.050130844116211,
		-11.347468376159668,
		-15.596719741821289],
		"max":[15.050130844116211,
		11.347468376159668,
		15.596719741821289]
	},
	{
		"bufferView":1,
		"type":"VEC3",
		"componentType":5126,
		"count":19110,
		"byteOffset":12,
		"min":[-0.999967098236084,
		-0.9999333620071411,
		-0.9997363686561585],
		"max":[0.9999830722808838,
		0.9999909996986389,
		0.9996039271354675]
	},
	{
		"bufferView":1,
		"type":"VEC2",
		"componentType":5126,
		"count":19110,
		"byteOffset":24,
		"min":[0.0,
		0.0],
		"max":[1.0,
		1.0]
	},
	{
		"bufferView":2,
		"type":"SCALAR",
		"componentType":5123,
		"count":2112,
		"byteOffset":0,
		"min":[0],
		"max":[380]
	},
	{
		"bufferView":3,
		"type":"VEC3",
		"componentType":5126,
		"count":381,
		"byteOffset":0,
		"min":[-3.3367996215820314,
		-6.7110090255737309,
		-2.9495410919189455],
		"max":[3.3367996215820314,
		6.7110090255737309,
		2.9495410919189455]
	},
	{
		"bufferView":3,
		"type":"VEC3",
		"componentType":5126,
		"count":381,
		"byteOffset":12,
		"min":[-0.9936334490776062,
		-0.9995782375335693,
		-0.9961143136024475],
		"max":[0.9994977116584778,
		0.998201310634613,
		0.9994686245918274]
	},
	{
		"bufferView":3,
		"type":"VEC2",
		"componentType":5126,
		"count":381,
		"byteOffset":24,
		"min":[0.12421908229589462,
		0.22577247023582459],
		"max":[1.1433733701705933,
		0.625]
	}],
	"bufferViews":[{
		"buffer":0,
		"byteOffset":0,
		"byteLength":112992,
		"target":34963
	},
	{
		"buffer":0,
		"byteOffset":112992,
		"byteLength":611520,
		"target":34962,
		"byteStride":32
	},
	{
		"buffer":1,
		"byteOffset":0,
		"byteLength":4224,
		"target":34963
	},
	{
		"buffer":1,
		"byteOffset":4224,
		"byteLength":12192,
		"target":34962,
		"byteStride":32
	}],
	"buffers":[{
		"uri":"data:application/octet-stream;base64,",
		"byteLength":724512
	},
	{
		"uri":"data:application/octet-stream;base64,",
		"byteLength":16416
	}],
	"materials":[{
		"pbrMetallicRoughness":{
			"baseColorFactor":[0.800000011920929,
			0.800000011920929,
			0.800000011920929,
			1.0],
			"roughnessFactor":0.1,
			"metallicFactor":0.03
		},
		"emissiveFactor":[0.0,
		0.0,
		0.0],
		"alphaMode":"OPAQUE",
		"doubleSided":false,
		"name":"Pumpkin"
	},
	{
		"pbrMetallicRoughness":{
			"baseColorFactor":[0.800000011920929,
			0.800000011920929,
			0.800000011920929,
			1.0],
			"roughnessFactor":0.3499999940395355,
			"metallicFactor":0.0
		},
		"emissiveFactor":[0.0,
		0.0,
		0.0],
		"alphaMode":"OPAQUE",
		"doubleSided":false,
		"name":"Pumpkin-Stem-02"
	}]
}